<svg xmlns="http://www.w3.org/2000/svg" xmlns:xlink="http://www.w3.org/1999/xlink" width="500" zoomAndPan="magnify" viewBox="0 0 375 374.999991" height="500" preserveAspectRatio="xMidYMid meet" version="1.0"><defs><g/><clipPath id="fec08f9619"><path d="M 161 97.546875 L 214 97.546875 L 214 154 L 161 154 Z M 161 97.546875 " clip-rule="nonzero"/></clipPath><clipPath id="402ca6ab47"><path d="M 123.019531 137 L 251.996094 137 L 251.996094 214.546875 L 123.019531 214.546875 Z M 123.019531 137 " clip-rule="nonzero"/></clipPath></defs><g clip-path="url(#fec08f9619)"><path fill="#7ec987" d="M 168.714844 150.339844 C 168.714844 152.28125 167.210938 153.789062 165.273438 153.789062 C 163.339844 153.789062 161.835938 152.28125 161.835938 150.339844 C 161.835938 139.539062 164.203125 129.375 168.078125 120.746094 C 172.179688 111.449219 178.222656 103.890625 185.535156 98.476562 C 186.835938 97.609375 188.339844 97.609375 189.636719 98.683594 C 196.746094 103.867188 202.789062 111.65625 206.890625 120.71875 C 210.765625 129.351562 213.132812 139.511719 213.132812 150.316406 C 213.132812 152.253906 211.628906 153.761719 209.695312 153.761719 C 207.757812 153.761719 206.253906 152.253906 206.253906 150.316406 C 206.253906 140.585938 204.316406 131.289062 200.648438 123.527344 C 197.410156 116.402344 192.875 110.121094 187.496094 105.808594 C 182.09375 110.121094 177.582031 116.402344 174.347656 123.527344 C 170.855469 131.34375 168.714844 140.636719 168.714844 150.339844 Z M 168.714844 150.339844 " fill-opacity="1" fill-rule="nonzero"/></g><g clip-path="url(#402ca6ab47)"><path fill="#7ec987" d="M 165.683594 201.769531 C 167.414062 202.636719 168.050781 204.578125 167.1875 206.3125 C 166.320312 208.050781 164.179688 208.6875 162.648438 207.820312 C 159.210938 206.082031 155.972656 204.144531 152.941406 201.996094 C 149.933594 199.621094 146.902344 197.25 144.097656 194.4375 C 136.554688 186.878906 130.949219 178.019531 127.710938 168.929688 C 124.066406 159.636719 122.996094 149.90625 124.296875 141.046875 C 124.5 139.539062 125.800781 138.238281 127.304688 138.03125 C 136.148438 136.730469 145.855469 137.828125 155.132812 141.480469 C 164.179688 144.722656 173.023438 150.339844 180.589844 158.128906 C 183.191406 160.503906 185.332031 163.109375 187.496094 165.480469 C 189.664062 163.109375 191.804688 160.503906 194.402344 158.128906 C 202.175781 150.339844 210.789062 144.722656 219.863281 141.480469 C 229.339844 137.800781 238.847656 136.730469 247.691406 138.03125 C 249.421875 138.238281 250.492188 139.539062 250.699219 141.046875 C 251.996094 149.90625 250.902344 159.636719 247.257812 168.929688 C 244.019531 177.996094 238.414062 186.855469 230.871094 194.4375 C 228.066406 197.25 225.058594 199.621094 222.027344 201.996094 C 219.019531 204.167969 215.785156 206.109375 212.546875 207.820312 C 210.816406 208.6875 208.675781 208.023438 207.808594 206.3125 C 206.941406 204.601562 207.605469 202.636719 209.3125 201.769531 C 212.320312 200.261719 215.121094 198.523438 217.925781 196.355469 C 220.726562 194.414062 223.328125 192.039062 225.902344 189.433594 C 232.808594 182.515625 237.980469 174.75 240.988281 166.53125 C 243.585938 159.175781 244.863281 151.617188 244.222656 144.695312 C 237.113281 144.058594 229.570312 145.132812 222.230469 147.941406 C 214.253906 150.953125 206.277344 155.933594 199.371094 162.851562 C 196.570312 165.660156 194.199219 168.265625 192.03125 170.84375 C 201.511719 183.382812 204.113281 193.113281 203.246094 200.234375 C 202.175781 209.734375 194.835938 214.484375 187.496094 214.484375 C 180.15625 214.484375 172.84375 209.734375 171.746094 200.234375 C 170.882812 193.113281 173.683594 183.382812 183.164062 170.84375 C 181 168.238281 178.425781 165.660156 175.621094 162.851562 C 168.714844 155.933594 160.96875 150.976562 152.761719 147.941406 C 145.421875 145.132812 137.878906 144.058594 130.769531 144.695312 C 130.335938 151.640625 131.40625 159.199219 134.210938 166.554688 C 137.21875 174.777344 142.1875 182.539062 149.09375 189.460938 C 151.691406 192.066406 154.265625 194.4375 157.070312 196.378906 C 159.871094 198.523438 162.675781 200.261719 165.683594 201.769531 Z M 196.519531 199.394531 C 197.15625 193.980469 194.785156 186.421875 187.472656 176.488281 C 180.132812 186.421875 177.761719 193.980469 178.628906 199.394531 C 179.265625 204.804688 183.367188 207.617188 187.472656 207.617188 C 191.574219 207.617188 195.675781 204.804688 196.519531 199.394531 Z M 196.519531 199.394531 " fill-opacity="1" fill-rule="nonzero"/></g><g fill="#000000" fill-opacity="1"><g transform="translate(131.759754, 251.659157)"><g><path d="M 8.625 -4.203125 L 19.34375 -4.203125 L 19.34375 0 L 3.421875 0 L 3.421875 -31.703125 L 8.625 -31.703125 Z M 8.625 -4.203125 "/></g></g></g><g fill="#000000" fill-opacity="1"><g transform="translate(152.007602, 251.659157)"><g><path d="M 8.625 -27.5 L 8.625 -18.203125 L 19.5625 -18.203125 L 19.5625 -13.953125 L 8.625 -13.953125 L 8.625 -4.234375 L 20.9375 -4.234375 L 20.9375 0 L 3.421875 0 L 3.421875 -31.75 L 20.9375 -31.75 L 20.9375 -27.5 Z M 8.625 -27.5 "/></g></g></g><g fill="#000000" fill-opacity="1"><g transform="translate(175.903711, 251.659157)"><g><path d="M 22.53125 -6.46875 L 9.265625 -6.46875 L 6.984375 0 L 1.546875 0 L 12.90625 -31.75 L 18.921875 -31.75 L 30.28125 0 L 24.8125 0 Z M 21.078125 -10.71875 L 15.921875 -25.453125 L 10.71875 -10.71875 Z M 21.078125 -10.71875 "/></g></g></g><g fill="#000000" fill-opacity="1"><g transform="translate(207.689175, 251.659157)"><g><path d="M 22.078125 -31.703125 L 22.078125 -27.453125 L 8.625 -27.453125 L 8.625 -18.109375 L 19.109375 -18.109375 L 19.109375 -13.859375 L 8.625 -13.859375 L 8.625 0 L 3.421875 0 L 3.421875 -31.703125 Z M 22.078125 -31.703125 "/></g></g></g><g fill="#000000" fill-opacity="1"><g transform="translate(231.174845, 251.659157)"><g><path d="M 8.625 -31.703125 L 8.625 0 L 3.421875 0 L 3.421875 -31.703125 Z M 8.625 -31.703125 "/></g></g></g><g fill="#000000" fill-opacity="1"><g transform="translate(35.414065, 267.802365)"><g><path d="M 1.3125 0 L 1.3125 -9.28125 L 1.96875 -9.28125 L 1.96875 -0.609375 L 6.390625 -0.609375 L 6.390625 0 Z M 1.3125 0 "/></g></g></g><g fill="#000000" fill-opacity="1"><g transform="translate(42.083452, 267.802365)"><g><path d="M 6.859375 -3.453125 C 6.859375 -2.328125 6.582031 -1.445312 6.03125 -0.8125 C 5.488281 -0.1875 4.738281 0.125 3.78125 0.125 C 3.175781 0.125 2.640625 -0.0195312 2.171875 -0.3125 C 1.710938 -0.601562 1.359375 -1.019531 1.109375 -1.5625 C 0.867188 -2.113281 0.75 -2.742188 0.75 -3.453125 C 0.75 -4.578125 1.019531 -5.453125 1.5625 -6.078125 C 2.113281 -6.710938 2.867188 -7.03125 3.828125 -7.03125 C 4.773438 -7.03125 5.515625 -6.710938 6.046875 -6.078125 C 6.585938 -5.441406 6.859375 -4.566406 6.859375 -3.453125 Z M 1.421875 -3.453125 C 1.421875 -2.503906 1.628906 -1.765625 2.046875 -1.234375 C 2.460938 -0.703125 3.050781 -0.4375 3.8125 -0.4375 C 4.570312 -0.4375 5.160156 -0.703125 5.578125 -1.234375 C 5.992188 -1.765625 6.203125 -2.503906 6.203125 -3.453125 C 6.203125 -4.410156 5.988281 -5.148438 5.5625 -5.671875 C 5.144531 -6.203125 4.554688 -6.46875 3.796875 -6.46875 C 3.035156 -6.46875 2.445312 -6.203125 2.03125 -5.671875 C 1.625 -5.148438 1.421875 -4.410156 1.421875 -3.453125 Z M 1.421875 -3.453125 "/></g></g></g><g fill="#000000" fill-opacity="1"><g transform="translate(49.69835, 267.802365)"><g><path d="M 6.53125 -6.90625 L 6.53125 -6.46875 L 5.109375 -6.375 C 5.492188 -5.894531 5.6875 -5.375 5.6875 -4.8125 C 5.6875 -4.144531 5.460938 -3.601562 5.015625 -3.1875 C 4.578125 -2.78125 3.984375 -2.578125 3.234375 -2.578125 C 2.921875 -2.578125 2.703125 -2.585938 2.578125 -2.609375 C 2.328125 -2.484375 2.132812 -2.332031 2 -2.15625 C 1.875 -1.976562 1.8125 -1.789062 1.8125 -1.59375 C 1.8125 -1.363281 1.894531 -1.195312 2.0625 -1.09375 C 2.226562 -1 2.507812 -0.953125 2.90625 -0.953125 L 4.109375 -0.953125 C 4.859375 -0.953125 5.429688 -0.800781 5.828125 -0.5 C 6.222656 -0.195312 6.421875 0.25 6.421875 0.84375 C 6.421875 1.570312 6.125 2.132812 5.53125 2.53125 C 4.945312 2.925781 4.109375 3.125 3.015625 3.125 C 2.148438 3.125 1.476562 2.957031 1 2.625 C 0.519531 2.289062 0.28125 1.820312 0.28125 1.21875 C 0.28125 0.75 0.425781 0.359375 0.71875 0.046875 C 1.019531 -0.265625 1.421875 -0.476562 1.921875 -0.59375 C 1.710938 -0.6875 1.546875 -0.8125 1.421875 -0.96875 C 1.296875 -1.132812 1.234375 -1.320312 1.234375 -1.53125 C 1.234375 -2 1.53125 -2.40625 2.125 -2.75 C 1.71875 -2.914062 1.398438 -3.175781 1.171875 -3.53125 C 0.953125 -3.882812 0.84375 -4.289062 0.84375 -4.75 C 0.84375 -5.4375 1.0625 -5.988281 1.5 -6.40625 C 1.9375 -6.820312 2.53125 -7.03125 3.28125 -7.03125 C 3.726562 -7.03125 4.078125 -6.988281 4.328125 -6.90625 Z M 0.953125 1.171875 C 0.953125 2.117188 1.65625 2.59375 3.0625 2.59375 C 4.875 2.59375 5.78125 2.015625 5.78125 0.859375 C 5.78125 0.441406 5.640625 0.140625 5.359375 -0.046875 C 5.078125 -0.234375 4.617188 -0.328125 3.984375 -0.328125 L 2.84375 -0.328125 C 1.582031 -0.328125 0.953125 0.171875 0.953125 1.171875 Z M 1.484375 -4.75 C 1.484375 -4.21875 1.644531 -3.800781 1.96875 -3.5 C 2.289062 -3.207031 2.722656 -3.0625 3.265625 -3.0625 C 3.835938 -3.0625 4.273438 -3.207031 4.578125 -3.5 C 4.890625 -3.789062 5.046875 -4.21875 5.046875 -4.78125 C 5.046875 -5.363281 4.882812 -5.800781 4.5625 -6.09375 C 4.25 -6.382812 3.8125 -6.53125 3.25 -6.53125 C 2.695312 -6.53125 2.265625 -6.375 1.953125 -6.0625 C 1.640625 -5.75 1.484375 -5.3125 1.484375 -4.75 Z M 1.484375 -4.75 "/></g></g></g><g fill="#000000" fill-opacity="1"><g transform="translate(56.494653, 267.802365)"><g><path d="M 1.78125 0 L 1.15625 0 L 1.15625 -6.90625 L 1.78125 -6.90625 Z M 1.0625 -8.8125 C 1.0625 -9.21875 1.195312 -9.421875 1.46875 -9.421875 C 1.59375 -9.421875 1.691406 -9.367188 1.765625 -9.265625 C 1.847656 -9.160156 1.890625 -9.007812 1.890625 -8.8125 C 1.890625 -8.625 1.847656 -8.472656 1.765625 -8.359375 C 1.691406 -8.253906 1.59375 -8.203125 1.46875 -8.203125 C 1.195312 -8.203125 1.0625 -8.40625 1.0625 -8.8125 Z M 1.0625 -8.8125 "/></g></g></g><g fill="#000000" fill-opacity="1"><g transform="translate(59.43274, 267.802365)"><g><path d="M 5.4375 -1.796875 C 5.4375 -1.179688 5.203125 -0.707031 4.734375 -0.375 C 4.265625 -0.0390625 3.597656 0.125 2.734375 0.125 C 1.804688 0.125 1.070312 -0.015625 0.53125 -0.296875 L 0.53125 -0.984375 C 1.226562 -0.628906 1.960938 -0.453125 2.734375 -0.453125 C 3.410156 -0.453125 3.925781 -0.566406 4.28125 -0.796875 C 4.632812 -1.023438 4.8125 -1.328125 4.8125 -1.703125 C 4.8125 -2.046875 4.671875 -2.335938 4.390625 -2.578125 C 4.109375 -2.816406 3.644531 -3.050781 3 -3.28125 C 2.3125 -3.53125 1.828125 -3.742188 1.546875 -3.921875 C 1.265625 -4.097656 1.050781 -4.300781 0.90625 -4.53125 C 0.769531 -4.757812 0.703125 -5.035156 0.703125 -5.359375 C 0.703125 -5.867188 0.914062 -6.273438 1.34375 -6.578125 C 1.78125 -6.878906 2.390625 -7.03125 3.171875 -7.03125 C 3.921875 -7.03125 4.628906 -6.890625 5.296875 -6.609375 L 5.0625 -6.046875 C 4.382812 -6.328125 3.753906 -6.46875 3.171875 -6.46875 C 2.609375 -6.46875 2.160156 -6.375 1.828125 -6.1875 C 1.503906 -6 1.34375 -5.738281 1.34375 -5.40625 C 1.34375 -5.050781 1.46875 -4.765625 1.71875 -4.546875 C 1.976562 -4.328125 2.476562 -4.085938 3.21875 -3.828125 C 3.84375 -3.597656 4.296875 -3.394531 4.578125 -3.21875 C 4.867188 -3.039062 5.082031 -2.835938 5.21875 -2.609375 C 5.363281 -2.378906 5.4375 -2.109375 5.4375 -1.796875 Z M 5.4375 -1.796875 "/></g></g></g><g fill="#000000" fill-opacity="1"><g transform="translate(65.486584, 267.802365)"><g><path d="M 2.984375 -0.4375 C 3.378906 -0.4375 3.722656 -0.46875 4.015625 -0.53125 L 4.015625 -0.03125 C 3.710938 0.0703125 3.363281 0.125 2.96875 0.125 C 2.351562 0.125 1.898438 -0.0351562 1.609375 -0.359375 C 1.328125 -0.679688 1.1875 -1.191406 1.1875 -1.890625 L 1.1875 -6.359375 L 0.15625 -6.359375 L 0.15625 -6.71875 L 1.1875 -7.015625 L 1.5 -8.5625 L 1.828125 -8.5625 L 1.828125 -6.90625 L 3.84375 -6.90625 L 3.84375 -6.359375 L 1.828125 -6.359375 L 1.828125 -1.984375 C 1.828125 -1.453125 1.914062 -1.0625 2.09375 -0.8125 C 2.28125 -0.5625 2.578125 -0.4375 2.984375 -0.4375 Z M 2.984375 -0.4375 "/></g></g></g><g fill="#000000" fill-opacity="1"><g transform="translate(69.839767, 267.802365)"><g><path d="M 1.78125 0 L 1.15625 0 L 1.15625 -6.90625 L 1.78125 -6.90625 Z M 1.0625 -8.8125 C 1.0625 -9.21875 1.195312 -9.421875 1.46875 -9.421875 C 1.59375 -9.421875 1.691406 -9.367188 1.765625 -9.265625 C 1.847656 -9.160156 1.890625 -9.007812 1.890625 -8.8125 C 1.890625 -8.625 1.847656 -8.472656 1.765625 -8.359375 C 1.691406 -8.253906 1.59375 -8.203125 1.46875 -8.203125 C 1.195312 -8.203125 1.0625 -8.40625 1.0625 -8.8125 Z M 1.0625 -8.8125 "/></g></g></g><g fill="#000000" fill-opacity="1"><g transform="translate(72.777855, 267.802365)"><g><path d="M 3.90625 0.125 C 2.925781 0.125 2.15625 -0.179688 1.59375 -0.796875 C 1.03125 -1.421875 0.75 -2.289062 0.75 -3.40625 C 0.75 -4.550781 1.039062 -5.441406 1.625 -6.078125 C 2.207031 -6.710938 3 -7.03125 4 -7.03125 C 4.601562 -7.03125 5.175781 -6.925781 5.71875 -6.71875 L 5.546875 -6.15625 C 4.953125 -6.363281 4.4375 -6.46875 4 -6.46875 C 3.144531 -6.46875 2.5 -6.203125 2.0625 -5.671875 C 1.632812 -5.148438 1.421875 -4.398438 1.421875 -3.421875 C 1.421875 -2.492188 1.632812 -1.765625 2.0625 -1.234375 C 2.5 -0.703125 3.109375 -0.4375 3.890625 -0.4375 C 4.523438 -0.4375 5.109375 -0.550781 5.640625 -0.78125 L 5.640625 -0.203125 C 5.203125 0.015625 4.625 0.125 3.90625 0.125 Z M 3.90625 0.125 "/></g></g></g><g fill="#000000" fill-opacity="1"><g transform="translate(78.952274, 267.802365)"><g><path d="M 5.4375 -1.796875 C 5.4375 -1.179688 5.203125 -0.707031 4.734375 -0.375 C 4.265625 -0.0390625 3.597656 0.125 2.734375 0.125 C 1.804688 0.125 1.070312 -0.015625 0.53125 -0.296875 L 0.53125 -0.984375 C 1.226562 -0.628906 1.960938 -0.453125 2.734375 -0.453125 C 3.410156 -0.453125 3.925781 -0.566406 4.28125 -0.796875 C 4.632812 -1.023438 4.8125 -1.328125 4.8125 -1.703125 C 4.8125 -2.046875 4.671875 -2.335938 4.390625 -2.578125 C 4.109375 -2.816406 3.644531 -3.050781 3 -3.28125 C 2.3125 -3.53125 1.828125 -3.742188 1.546875 -3.921875 C 1.265625 -4.097656 1.050781 -4.300781 0.90625 -4.53125 C 0.769531 -4.757812 0.703125 -5.035156 0.703125 -5.359375 C 0.703125 -5.867188 0.914062 -6.273438 1.34375 -6.578125 C 1.78125 -6.878906 2.390625 -7.03125 3.171875 -7.03125 C 3.921875 -7.03125 4.628906 -6.890625 5.296875 -6.609375 L 5.0625 -6.046875 C 4.382812 -6.328125 3.753906 -6.46875 3.171875 -6.46875 C 2.609375 -6.46875 2.160156 -6.375 1.828125 -6.1875 C 1.503906 -6 1.34375 -5.738281 1.34375 -5.40625 C 1.34375 -5.050781 1.46875 -4.765625 1.71875 -4.546875 C 1.976562 -4.328125 2.476562 -4.085938 3.21875 -3.828125 C 3.84375 -3.597656 4.296875 -3.394531 4.578125 -3.21875 C 4.867188 -3.039062 5.082031 -2.835938 5.21875 -2.609375 C 5.363281 -2.378906 5.4375 -2.109375 5.4375 -1.796875 Z M 5.4375 -1.796875 "/></g></g></g><g fill="#000000" fill-opacity="1"><g transform="translate(85.006118, 267.802365)"><g/></g></g><g fill="#000000" fill-opacity="1"><g transform="translate(88.382056, 267.802365)"><g><path d="M 6.390625 0 L 1.3125 0 L 1.3125 -9.28125 L 6.390625 -9.28125 L 6.390625 -8.6875 L 1.96875 -8.6875 L 1.96875 -5.171875 L 6.140625 -5.171875 L 6.140625 -4.578125 L 1.96875 -4.578125 L 1.96875 -0.59375 L 6.390625 -0.59375 Z M 6.390625 0 "/></g></g></g><g fill="#000000" fill-opacity="1"><g transform="translate(95.552752, 267.802365)"><g><path d="M 5.96875 0 L 5.96875 -4.46875 C 5.96875 -5.164062 5.820312 -5.671875 5.53125 -5.984375 C 5.238281 -6.304688 4.785156 -6.46875 4.171875 -6.46875 C 3.347656 -6.46875 2.742188 -6.257812 2.359375 -5.84375 C 1.972656 -5.425781 1.78125 -4.75 1.78125 -3.8125 L 1.78125 0 L 1.15625 0 L 1.15625 -6.90625 L 1.6875 -6.90625 L 1.8125 -5.953125 L 1.84375 -5.953125 C 2.289062 -6.671875 3.085938 -7.03125 4.234375 -7.03125 C 5.804688 -7.03125 6.59375 -6.191406 6.59375 -4.515625 L 6.59375 0 Z M 5.96875 0 "/></g></g></g><g fill="#000000" fill-opacity="1"><g transform="translate(103.218416, 267.802365)"><g><path d="M 3.609375 0.125 C 2.703125 0.125 2 -0.171875 1.5 -0.765625 C 1 -1.367188 0.75 -2.238281 0.75 -3.375 C 0.75 -4.539062 1 -5.441406 1.5 -6.078125 C 2 -6.710938 2.71875 -7.03125 3.65625 -7.03125 C 4.644531 -7.03125 5.390625 -6.660156 5.890625 -5.921875 L 5.921875 -5.921875 L 6.046875 -6.90625 L 6.578125 -6.90625 L 6.578125 3.125 L 5.953125 3.125 L 5.953125 0.5 C 5.953125 -0.0195312 5.96875 -0.546875 6 -1.078125 L 5.953125 -1.078125 C 5.453125 -0.273438 4.671875 0.125 3.609375 0.125 Z M 3.625 -0.4375 C 4.457031 -0.4375 5.050781 -0.664062 5.40625 -1.125 C 5.769531 -1.582031 5.953125 -2.359375 5.953125 -3.453125 L 5.953125 -3.515625 C 5.953125 -4.554688 5.769531 -5.304688 5.40625 -5.765625 C 5.050781 -6.234375 4.476562 -6.46875 3.6875 -6.46875 C 2.945312 -6.46875 2.382812 -6.203125 2 -5.671875 C 1.613281 -5.148438 1.421875 -4.378906 1.421875 -3.359375 C 1.421875 -2.390625 1.609375 -1.660156 1.984375 -1.171875 C 2.359375 -0.679688 2.90625 -0.4375 3.625 -0.4375 Z M 3.625 -0.4375 "/></g></g></g><g fill="#000000" fill-opacity="1"><g transform="translate(110.953889, 267.802365)"><g><path d="M 1.703125 -6.90625 L 1.703125 -2.4375 C 1.703125 -1.738281 1.847656 -1.226562 2.140625 -0.90625 C 2.429688 -0.59375 2.882812 -0.4375 3.5 -0.4375 C 4.320312 -0.4375 4.925781 -0.644531 5.3125 -1.0625 C 5.695312 -1.476562 5.890625 -2.15625 5.890625 -3.09375 L 5.890625 -6.90625 L 6.515625 -6.90625 L 6.515625 0 L 5.984375 0 L 5.859375 -0.953125 L 5.828125 -0.953125 C 5.378906 -0.234375 4.582031 0.125 3.4375 0.125 C 1.863281 0.125 1.078125 -0.710938 1.078125 -2.390625 L 1.078125 -6.90625 Z M 1.703125 -6.90625 "/></g></g></g><g fill="#000000" fill-opacity="1"><g transform="translate(118.619553, 267.802365)"><g><path d="M 1.78125 0 L 1.15625 0 L 1.15625 -6.90625 L 1.78125 -6.90625 Z M 1.0625 -8.8125 C 1.0625 -9.21875 1.195312 -9.421875 1.46875 -9.421875 C 1.59375 -9.421875 1.691406 -9.367188 1.765625 -9.265625 C 1.847656 -9.160156 1.890625 -9.007812 1.890625 -8.8125 C 1.890625 -8.625 1.847656 -8.472656 1.765625 -8.359375 C 1.691406 -8.253906 1.59375 -8.203125 1.46875 -8.203125 C 1.195312 -8.203125 1.0625 -8.40625 1.0625 -8.8125 Z M 1.0625 -8.8125 "/></g></g></g><g fill="#000000" fill-opacity="1"><g transform="translate(121.55764, 267.802365)"><g><path d="M 3.875 -7.03125 C 4.164062 -7.03125 4.476562 -7 4.8125 -6.9375 L 4.6875 -6.34375 C 4.40625 -6.414062 4.109375 -6.453125 3.796875 -6.453125 C 3.203125 -6.453125 2.71875 -6.203125 2.34375 -5.703125 C 1.96875 -5.203125 1.78125 -4.570312 1.78125 -3.8125 L 1.78125 0 L 1.15625 0 L 1.15625 -6.90625 L 1.6875 -6.90625 L 1.75 -5.65625 L 1.796875 -5.65625 C 2.078125 -6.164062 2.378906 -6.519531 2.703125 -6.71875 C 3.023438 -6.925781 3.414062 -7.03125 3.875 -7.03125 Z M 3.875 -7.03125 "/></g></g></g><g fill="#000000" fill-opacity="1"><g transform="translate(126.615208, 267.802365)"><g><path d="M 0 -6.90625 L 0.640625 -6.90625 L 2.109375 -3.03125 C 2.554688 -1.84375 2.835938 -1.039062 2.953125 -0.625 L 2.984375 -0.625 C 3.160156 -1.164062 3.453125 -1.976562 3.859375 -3.0625 L 5.3125 -6.90625 L 5.96875 -6.90625 L 2.875 1.125 C 2.625 1.769531 2.414062 2.207031 2.25 2.4375 C 2.082031 2.664062 1.882812 2.835938 1.65625 2.953125 C 1.425781 3.066406 1.148438 3.125 0.828125 3.125 C 0.585938 3.125 0.320312 3.078125 0.03125 2.984375 L 0.03125 2.4375 C 0.269531 2.507812 0.53125 2.546875 0.8125 2.546875 C 1.03125 2.546875 1.222656 2.492188 1.390625 2.390625 C 1.554688 2.285156 1.703125 2.125 1.828125 1.90625 C 1.960938 1.695312 2.117188 1.359375 2.296875 0.890625 C 2.472656 0.429688 2.585938 0.132812 2.640625 0 Z M 0 -6.90625 "/></g></g></g><g fill="#000000" fill-opacity="1"><g transform="translate(132.580211, 267.802365)"><g/></g></g><g fill="#000000" fill-opacity="1"><g transform="translate(135.956149, 267.802365)"><g><path d="M 0.78125 -2.359375 C 0.78125 -2.941406 0.9375 -3.4375 1.25 -3.84375 C 1.5625 -4.257812 2.140625 -4.691406 2.984375 -5.140625 L 2.515625 -5.671875 C 2.234375 -5.972656 2.023438 -6.265625 1.890625 -6.546875 C 1.753906 -6.835938 1.6875 -7.140625 1.6875 -7.453125 C 1.6875 -8.054688 1.890625 -8.535156 2.296875 -8.890625 C 2.703125 -9.242188 3.242188 -9.421875 3.921875 -9.421875 C 4.578125 -9.421875 5.097656 -9.25 5.484375 -8.90625 C 5.867188 -8.5625 6.0625 -8.085938 6.0625 -7.484375 C 6.0625 -7.046875 5.910156 -6.640625 5.609375 -6.265625 C 5.316406 -5.898438 4.78125 -5.488281 4 -5.03125 L 6.875 -2.140625 C 7.132812 -2.441406 7.351562 -2.769531 7.53125 -3.125 C 7.71875 -3.488281 7.878906 -3.914062 8.015625 -4.40625 L 8.625 -4.40625 C 8.351562 -3.363281 7.910156 -2.460938 7.296875 -1.703125 L 8.984375 0 L 8.125 0 L 6.90625 -1.25 C 6.507812 -0.863281 6.160156 -0.582031 5.859375 -0.40625 C 5.554688 -0.238281 5.222656 -0.109375 4.859375 -0.015625 C 4.492188 0.078125 4.082031 0.125 3.625 0.125 C 2.738281 0.125 2.039062 -0.09375 1.53125 -0.53125 C 1.03125 -0.96875 0.78125 -1.578125 0.78125 -2.359375 Z M 3.671875 -0.4375 C 4.210938 -0.4375 4.707031 -0.53125 5.15625 -0.71875 C 5.601562 -0.90625 6.046875 -1.21875 6.484375 -1.65625 L 3.421875 -4.734375 C 2.847656 -4.421875 2.429688 -4.15625 2.171875 -3.9375 C 1.921875 -3.726562 1.734375 -3.5 1.609375 -3.25 C 1.492188 -3 1.4375 -2.707031 1.4375 -2.375 C 1.4375 -1.769531 1.632812 -1.296875 2.03125 -0.953125 C 2.425781 -0.609375 2.972656 -0.4375 3.671875 -0.4375 Z M 2.375 -7.46875 C 2.375 -7.132812 2.457031 -6.820312 2.625 -6.53125 C 2.789062 -6.25 3.113281 -5.882812 3.59375 -5.4375 C 4.257812 -5.789062 4.722656 -6.125 4.984375 -6.4375 C 5.253906 -6.75 5.390625 -7.109375 5.390625 -7.515625 C 5.390625 -7.910156 5.253906 -8.234375 4.984375 -8.484375 C 4.722656 -8.734375 4.367188 -8.859375 3.921875 -8.859375 C 3.441406 -8.859375 3.0625 -8.734375 2.78125 -8.484375 C 2.507812 -8.242188 2.375 -7.90625 2.375 -7.46875 Z M 2.375 -7.46875 "/></g></g></g><g fill="#000000" fill-opacity="1"><g transform="translate(145.220942, 267.802365)"><g/></g></g><g fill="#000000" fill-opacity="1"><g transform="translate(148.59688, 267.802365)"><g><path d="M 1.96875 0 L 1.3125 0 L 1.3125 -9.28125 L 6.40625 -9.28125 L 6.40625 -8.6875 L 1.96875 -8.6875 L 1.96875 -4.75 L 6.15625 -4.75 L 6.15625 -4.140625 L 1.96875 -4.140625 Z M 1.96875 0 "/></g></g></g><g fill="#000000" fill-opacity="1"><g transform="translate(155.12031, 267.802365)"><g><path d="M 1.78125 0 L 1.15625 0 L 1.15625 -6.90625 L 1.78125 -6.90625 Z M 1.0625 -8.8125 C 1.0625 -9.21875 1.195312 -9.421875 1.46875 -9.421875 C 1.59375 -9.421875 1.691406 -9.367188 1.765625 -9.265625 C 1.847656 -9.160156 1.890625 -9.007812 1.890625 -8.8125 C 1.890625 -8.625 1.847656 -8.472656 1.765625 -8.359375 C 1.691406 -8.253906 1.59375 -8.203125 1.46875 -8.203125 C 1.195312 -8.203125 1.0625 -8.40625 1.0625 -8.8125 Z M 1.0625 -8.8125 "/></g></g></g><g fill="#000000" fill-opacity="1"><g transform="translate(158.058397, 267.802365)"><g><path d="M 5.96875 0 L 5.96875 -4.46875 C 5.96875 -5.164062 5.820312 -5.671875 5.53125 -5.984375 C 5.238281 -6.304688 4.785156 -6.46875 4.171875 -6.46875 C 3.347656 -6.46875 2.742188 -6.257812 2.359375 -5.84375 C 1.972656 -5.425781 1.78125 -4.75 1.78125 -3.8125 L 1.78125 0 L 1.15625 0 L 1.15625 -6.90625 L 1.6875 -6.90625 L 1.8125 -5.953125 L 1.84375 -5.953125 C 2.289062 -6.671875 3.085938 -7.03125 4.234375 -7.03125 C 5.804688 -7.03125 6.59375 -6.191406 6.59375 -4.515625 L 6.59375 0 Z M 5.96875 0 "/></g></g></g><g fill="#000000" fill-opacity="1"><g transform="translate(165.724061, 267.802365)"><g><path d="M 5.34375 0 L 5.1875 -1.09375 L 5.140625 -1.09375 C 4.785156 -0.644531 4.425781 -0.328125 4.0625 -0.140625 C 3.695312 0.0351562 3.265625 0.125 2.765625 0.125 C 2.085938 0.125 1.5625 -0.046875 1.1875 -0.390625 C 0.8125 -0.742188 0.625 -1.222656 0.625 -1.828125 C 0.625 -2.503906 0.898438 -3.03125 1.453125 -3.40625 C 2.015625 -3.78125 2.828125 -3.976562 3.890625 -4 L 5.21875 -4.03125 L 5.21875 -4.484375 C 5.21875 -5.140625 5.082031 -5.632812 4.8125 -5.96875 C 4.539062 -6.300781 4.109375 -6.46875 3.515625 -6.46875 C 2.878906 -6.46875 2.21875 -6.289062 1.53125 -5.9375 L 1.296875 -6.484375 C 2.054688 -6.835938 2.804688 -7.015625 3.546875 -7.015625 C 4.304688 -7.015625 4.875 -6.816406 5.25 -6.421875 C 5.625 -6.035156 5.8125 -5.425781 5.8125 -4.59375 L 5.8125 0 Z M 2.8125 -0.4375 C 3.539062 -0.4375 4.117188 -0.644531 4.546875 -1.0625 C 4.972656 -1.488281 5.1875 -2.078125 5.1875 -2.828125 L 5.1875 -3.515625 L 3.984375 -3.453125 C 3.015625 -3.410156 2.320312 -3.257812 1.90625 -3 C 1.488281 -2.75 1.28125 -2.351562 1.28125 -1.8125 C 1.28125 -1.375 1.410156 -1.035156 1.671875 -0.796875 C 1.941406 -0.554688 2.320312 -0.4375 2.8125 -0.4375 Z M 2.8125 -0.4375 "/></g></g></g><g fill="#000000" fill-opacity="1"><g transform="translate(172.609204, 267.802365)"><g><path d="M 1.78125 0 L 1.15625 0 L 1.15625 -9.875 L 1.78125 -9.875 Z M 1.78125 0 "/></g></g></g><g fill="#000000" fill-opacity="1"><g transform="translate(175.547291, 267.802365)"><g><path d="M 1.78125 0 L 1.15625 0 L 1.15625 -6.90625 L 1.78125 -6.90625 Z M 1.0625 -8.8125 C 1.0625 -9.21875 1.195312 -9.421875 1.46875 -9.421875 C 1.59375 -9.421875 1.691406 -9.367188 1.765625 -9.265625 C 1.847656 -9.160156 1.890625 -9.007812 1.890625 -8.8125 C 1.890625 -8.625 1.847656 -8.472656 1.765625 -8.359375 C 1.691406 -8.253906 1.59375 -8.203125 1.46875 -8.203125 C 1.195312 -8.203125 1.0625 -8.40625 1.0625 -8.8125 Z M 1.0625 -8.8125 "/></g></g></g><g fill="#000000" fill-opacity="1"><g transform="translate(178.485379, 267.802365)"><g><path d="M 5.453125 0 L 0.515625 0 L 0.515625 -0.40625 L 4.609375 -6.34375 L 0.8125 -6.34375 L 0.8125 -6.90625 L 5.4375 -6.90625 L 5.4375 -6.5 L 1.3125 -0.5625 L 5.453125 -0.5625 Z M 5.453125 0 "/></g></g></g><g fill="#000000" fill-opacity="1"><g transform="translate(184.475765, 267.802365)"><g><path d="M 5.34375 0 L 5.1875 -1.09375 L 5.140625 -1.09375 C 4.785156 -0.644531 4.425781 -0.328125 4.0625 -0.140625 C 3.695312 0.0351562 3.265625 0.125 2.765625 0.125 C 2.085938 0.125 1.5625 -0.046875 1.1875 -0.390625 C 0.8125 -0.742188 0.625 -1.222656 0.625 -1.828125 C 0.625 -2.503906 0.898438 -3.03125 1.453125 -3.40625 C 2.015625 -3.78125 2.828125 -3.976562 3.890625 -4 L 5.21875 -4.03125 L 5.21875 -4.484375 C 5.21875 -5.140625 5.082031 -5.632812 4.8125 -5.96875 C 4.539062 -6.300781 4.109375 -6.46875 3.515625 -6.46875 C 2.878906 -6.46875 2.21875 -6.289062 1.53125 -5.9375 L 1.296875 -6.484375 C 2.054688 -6.835938 2.804688 -7.015625 3.546875 -7.015625 C 4.304688 -7.015625 4.875 -6.816406 5.25 -6.421875 C 5.625 -6.035156 5.8125 -5.425781 5.8125 -4.59375 L 5.8125 0 Z M 2.8125 -0.4375 C 3.539062 -0.4375 4.117188 -0.644531 4.546875 -1.0625 C 4.972656 -1.488281 5.1875 -2.078125 5.1875 -2.828125 L 5.1875 -3.515625 L 3.984375 -3.453125 C 3.015625 -3.410156 2.320312 -3.257812 1.90625 -3 C 1.488281 -2.75 1.28125 -2.351562 1.28125 -1.8125 C 1.28125 -1.375 1.410156 -1.035156 1.671875 -0.796875 C 1.941406 -0.554688 2.320312 -0.4375 2.8125 -0.4375 Z M 2.8125 -0.4375 "/></g></g></g><g fill="#000000" fill-opacity="1"><g transform="translate(191.360908, 267.802365)"><g><path d="M 2.984375 -0.4375 C 3.378906 -0.4375 3.722656 -0.46875 4.015625 -0.53125 L 4.015625 -0.03125 C 3.710938 0.0703125 3.363281 0.125 2.96875 0.125 C 2.351562 0.125 1.898438 -0.0351562 1.609375 -0.359375 C 1.328125 -0.679688 1.1875 -1.191406 1.1875 -1.890625 L 1.1875 -6.359375 L 0.15625 -6.359375 L 0.15625 -6.71875 L 1.1875 -7.015625 L 1.5 -8.5625 L 1.828125 -8.5625 L 1.828125 -6.90625 L 3.84375 -6.90625 L 3.84375 -6.359375 L 1.828125 -6.359375 L 1.828125 -1.984375 C 1.828125 -1.453125 1.914062 -1.0625 2.09375 -0.8125 C 2.28125 -0.5625 2.578125 -0.4375 2.984375 -0.4375 Z M 2.984375 -0.4375 "/></g></g></g><g fill="#000000" fill-opacity="1"><g transform="translate(195.714092, 267.802365)"><g><path d="M 1.78125 0 L 1.15625 0 L 1.15625 -6.90625 L 1.78125 -6.90625 Z M 1.0625 -8.8125 C 1.0625 -9.21875 1.195312 -9.421875 1.46875 -9.421875 C 1.59375 -9.421875 1.691406 -9.367188 1.765625 -9.265625 C 1.847656 -9.160156 1.890625 -9.007812 1.890625 -8.8125 C 1.890625 -8.625 1.847656 -8.472656 1.765625 -8.359375 C 1.691406 -8.253906 1.59375 -8.203125 1.46875 -8.203125 C 1.195312 -8.203125 1.0625 -8.40625 1.0625 -8.8125 Z M 1.0625 -8.8125 "/></g></g></g><g fill="#000000" fill-opacity="1"><g transform="translate(198.652179, 267.802365)"><g><path d="M 6.859375 -3.453125 C 6.859375 -2.328125 6.582031 -1.445312 6.03125 -0.8125 C 5.488281 -0.1875 4.738281 0.125 3.78125 0.125 C 3.175781 0.125 2.640625 -0.0195312 2.171875 -0.3125 C 1.710938 -0.601562 1.359375 -1.019531 1.109375 -1.5625 C 0.867188 -2.113281 0.75 -2.742188 0.75 -3.453125 C 0.75 -4.578125 1.019531 -5.453125 1.5625 -6.078125 C 2.113281 -6.710938 2.867188 -7.03125 3.828125 -7.03125 C 4.773438 -7.03125 5.515625 -6.710938 6.046875 -6.078125 C 6.585938 -5.441406 6.859375 -4.566406 6.859375 -3.453125 Z M 1.421875 -3.453125 C 1.421875 -2.503906 1.628906 -1.765625 2.046875 -1.234375 C 2.460938 -0.703125 3.050781 -0.4375 3.8125 -0.4375 C 4.570312 -0.4375 5.160156 -0.703125 5.578125 -1.234375 C 5.992188 -1.765625 6.203125 -2.503906 6.203125 -3.453125 C 6.203125 -4.410156 5.988281 -5.148438 5.5625 -5.671875 C 5.144531 -6.203125 4.554688 -6.46875 3.796875 -6.46875 C 3.035156 -6.46875 2.445312 -6.203125 2.03125 -5.671875 C 1.625 -5.148438 1.421875 -4.410156 1.421875 -3.453125 Z M 1.421875 -3.453125 "/></g></g></g><g fill="#000000" fill-opacity="1"><g transform="translate(206.267077, 267.802365)"><g><path d="M 5.96875 0 L 5.96875 -4.46875 C 5.96875 -5.164062 5.820312 -5.671875 5.53125 -5.984375 C 5.238281 -6.304688 4.785156 -6.46875 4.171875 -6.46875 C 3.347656 -6.46875 2.742188 -6.257812 2.359375 -5.84375 C 1.972656 -5.425781 1.78125 -4.75 1.78125 -3.8125 L 1.78125 0 L 1.15625 0 L 1.15625 -6.90625 L 1.6875 -6.90625 L 1.8125 -5.953125 L 1.84375 -5.953125 C 2.289062 -6.671875 3.085938 -7.03125 4.234375 -7.03125 C 5.804688 -7.03125 6.59375 -6.191406 6.59375 -4.515625 L 6.59375 0 Z M 5.96875 0 "/></g></g></g><g fill="#000000" fill-opacity="1"><g transform="translate(213.932741, 267.802365)"><g/></g></g><g fill="#000000" fill-opacity="1"><g transform="translate(217.308679, 267.802365)"><g><path d="M 3.71875 -6.359375 L 2.09375 -6.359375 L 2.09375 0 L 1.46875 0 L 1.46875 -6.359375 L 0.1875 -6.359375 L 0.1875 -6.71875 L 1.46875 -6.953125 L 1.46875 -7.484375 C 1.46875 -8.335938 1.625 -8.960938 1.9375 -9.359375 C 2.25 -9.753906 2.753906 -9.953125 3.453125 -9.953125 C 3.835938 -9.953125 4.222656 -9.894531 4.609375 -9.78125 L 4.453125 -9.234375 C 4.117188 -9.335938 3.785156 -9.390625 3.453125 -9.390625 C 2.953125 -9.390625 2.597656 -9.242188 2.390625 -8.953125 C 2.191406 -8.660156 2.09375 -8.191406 2.09375 -7.546875 L 2.09375 -6.90625 L 3.71875 -6.90625 Z M 3.71875 -6.359375 "/></g></g></g><g fill="#000000" fill-opacity="1"><g transform="translate(221.204969, 267.802365)"><g><path d="M 6.859375 -3.453125 C 6.859375 -2.328125 6.582031 -1.445312 6.03125 -0.8125 C 5.488281 -0.1875 4.738281 0.125 3.78125 0.125 C 3.175781 0.125 2.640625 -0.0195312 2.171875 -0.3125 C 1.710938 -0.601562 1.359375 -1.019531 1.109375 -1.5625 C 0.867188 -2.113281 0.75 -2.742188 0.75 -3.453125 C 0.75 -4.578125 1.019531 -5.453125 1.5625 -6.078125 C 2.113281 -6.710938 2.867188 -7.03125 3.828125 -7.03125 C 4.773438 -7.03125 5.515625 -6.710938 6.046875 -6.078125 C 6.585938 -5.441406 6.859375 -4.566406 6.859375 -3.453125 Z M 1.421875 -3.453125 C 1.421875 -2.503906 1.628906 -1.765625 2.046875 -1.234375 C 2.460938 -0.703125 3.050781 -0.4375 3.8125 -0.4375 C 4.570312 -0.4375 5.160156 -0.703125 5.578125 -1.234375 C 5.992188 -1.765625 6.203125 -2.503906 6.203125 -3.453125 C 6.203125 -4.410156 5.988281 -5.148438 5.5625 -5.671875 C 5.144531 -6.203125 4.554688 -6.46875 3.796875 -6.46875 C 3.035156 -6.46875 2.445312 -6.203125 2.03125 -5.671875 C 1.625 -5.148438 1.421875 -4.410156 1.421875 -3.453125 Z M 1.421875 -3.453125 "/></g></g></g><g fill="#000000" fill-opacity="1"><g transform="translate(228.819867, 267.802365)"><g><path d="M 3.875 -7.03125 C 4.164062 -7.03125 4.476562 -7 4.8125 -6.9375 L 4.6875 -6.34375 C 4.40625 -6.414062 4.109375 -6.453125 3.796875 -6.453125 C 3.203125 -6.453125 2.71875 -6.203125 2.34375 -5.703125 C 1.96875 -5.203125 1.78125 -4.570312 1.78125 -3.8125 L 1.78125 0 L 1.15625 0 L 1.15625 -6.90625 L 1.6875 -6.90625 L 1.75 -5.65625 L 1.796875 -5.65625 C 2.078125 -6.164062 2.378906 -6.519531 2.703125 -6.71875 C 3.023438 -6.925781 3.414062 -7.03125 3.875 -7.03125 Z M 3.875 -7.03125 "/></g></g></g><g fill="#000000" fill-opacity="1"><g transform="translate(233.877446, 267.802365)"><g/></g></g><g fill="#000000" fill-opacity="1"><g transform="translate(237.253384, 267.802365)"><g><path d="M 1.3125 0 L 1.3125 -9.28125 L 1.96875 -9.28125 L 1.96875 0 Z M 1.3125 0 "/></g></g></g><g fill="#000000" fill-opacity="1"><g transform="translate(240.52779, 267.802365)"><g><path d="M 5.96875 0 L 5.96875 -4.46875 C 5.96875 -5.164062 5.820312 -5.671875 5.53125 -5.984375 C 5.238281 -6.304688 4.785156 -6.46875 4.171875 -6.46875 C 3.347656 -6.46875 2.742188 -6.257812 2.359375 -5.84375 C 1.972656 -5.425781 1.78125 -4.75 1.78125 -3.8125 L 1.78125 0 L 1.15625 0 L 1.15625 -6.90625 L 1.6875 -6.90625 L 1.8125 -5.953125 L 1.84375 -5.953125 C 2.289062 -6.671875 3.085938 -7.03125 4.234375 -7.03125 C 5.804688 -7.03125 6.59375 -6.191406 6.59375 -4.515625 L 6.59375 0 Z M 5.96875 0 "/></g></g></g><g fill="#000000" fill-opacity="1"><g transform="translate(248.193454, 267.802365)"><g><path d="M 4.0625 -7.03125 C 5.03125 -7.03125 5.757812 -6.726562 6.25 -6.125 C 6.738281 -5.519531 6.984375 -4.628906 6.984375 -3.453125 C 6.984375 -2.304688 6.722656 -1.421875 6.203125 -0.796875 C 5.691406 -0.179688 4.972656 0.125 4.046875 0.125 C 3.554688 0.125 3.113281 0.0234375 2.71875 -0.171875 C 2.320312 -0.378906 2.007812 -0.671875 1.78125 -1.046875 L 1.734375 -1.046875 L 1.546875 0 L 1.15625 0 L 1.15625 -9.875 L 1.78125 -9.875 L 1.78125 -7.390625 C 1.78125 -7.023438 1.773438 -6.679688 1.765625 -6.359375 L 1.734375 -5.828125 L 1.78125 -5.828125 C 2.039062 -6.242188 2.351562 -6.546875 2.71875 -6.734375 C 3.09375 -6.929688 3.539062 -7.03125 4.0625 -7.03125 Z M 4.0625 -6.46875 C 3.25 -6.46875 2.664062 -6.234375 2.3125 -5.765625 C 1.957031 -5.296875 1.78125 -4.523438 1.78125 -3.453125 L 1.78125 -3.359375 C 1.78125 -2.316406 1.960938 -1.566406 2.328125 -1.109375 C 2.691406 -0.660156 3.265625 -0.4375 4.046875 -0.4375 C 4.796875 -0.4375 5.359375 -0.695312 5.734375 -1.21875 C 6.117188 -1.75 6.3125 -2.5 6.3125 -3.46875 C 6.3125 -5.46875 5.5625 -6.46875 4.0625 -6.46875 Z M 4.0625 -6.46875 "/></g></g></g><g fill="#000000" fill-opacity="1"><g transform="translate(255.928927, 267.802365)"><g><path d="M 6.859375 -3.453125 C 6.859375 -2.328125 6.582031 -1.445312 6.03125 -0.8125 C 5.488281 -0.1875 4.738281 0.125 3.78125 0.125 C 3.175781 0.125 2.640625 -0.0195312 2.171875 -0.3125 C 1.710938 -0.601562 1.359375 -1.019531 1.109375 -1.5625 C 0.867188 -2.113281 0.75 -2.742188 0.75 -3.453125 C 0.75 -4.578125 1.019531 -5.453125 1.5625 -6.078125 C 2.113281 -6.710938 2.867188 -7.03125 3.828125 -7.03125 C 4.773438 -7.03125 5.515625 -6.710938 6.046875 -6.078125 C 6.585938 -5.441406 6.859375 -4.566406 6.859375 -3.453125 Z M 1.421875 -3.453125 C 1.421875 -2.503906 1.628906 -1.765625 2.046875 -1.234375 C 2.460938 -0.703125 3.050781 -0.4375 3.8125 -0.4375 C 4.570312 -0.4375 5.160156 -0.703125 5.578125 -1.234375 C 5.992188 -1.765625 6.203125 -2.503906 6.203125 -3.453125 C 6.203125 -4.410156 5.988281 -5.148438 5.5625 -5.671875 C 5.144531 -6.203125 4.554688 -6.46875 3.796875 -6.46875 C 3.035156 -6.46875 2.445312 -6.203125 2.03125 -5.671875 C 1.625 -5.148438 1.421875 -4.410156 1.421875 -3.453125 Z M 1.421875 -3.453125 "/></g></g></g><g fill="#000000" fill-opacity="1"><g transform="translate(263.543825, 267.802365)"><g><path d="M 1.703125 -6.90625 L 1.703125 -2.4375 C 1.703125 -1.738281 1.847656 -1.226562 2.140625 -0.90625 C 2.429688 -0.59375 2.882812 -0.4375 3.5 -0.4375 C 4.320312 -0.4375 4.925781 -0.644531 5.3125 -1.0625 C 5.695312 -1.476562 5.890625 -2.15625 5.890625 -3.09375 L 5.890625 -6.90625 L 6.515625 -6.90625 L 6.515625 0 L 5.984375 0 L 5.859375 -0.953125 L 5.828125 -0.953125 C 5.378906 -0.234375 4.582031 0.125 3.4375 0.125 C 1.863281 0.125 1.078125 -0.710938 1.078125 -2.390625 L 1.078125 -6.90625 Z M 1.703125 -6.90625 "/></g></g></g><g fill="#000000" fill-opacity="1"><g transform="translate(271.20949, 267.802365)"><g><path d="M 5.96875 0 L 5.96875 -4.46875 C 5.96875 -5.164062 5.820312 -5.671875 5.53125 -5.984375 C 5.238281 -6.304688 4.785156 -6.46875 4.171875 -6.46875 C 3.347656 -6.46875 2.742188 -6.257812 2.359375 -5.84375 C 1.972656 -5.425781 1.78125 -4.75 1.78125 -3.8125 L 1.78125 0 L 1.15625 0 L 1.15625 -6.90625 L 1.6875 -6.90625 L 1.8125 -5.953125 L 1.84375 -5.953125 C 2.289062 -6.671875 3.085938 -7.03125 4.234375 -7.03125 C 5.804688 -7.03125 6.59375 -6.191406 6.59375 -4.515625 L 6.59375 0 Z M 5.96875 0 "/></g></g></g><g fill="#000000" fill-opacity="1"><g transform="translate(278.875154, 267.802365)"><g><path d="M 3.6875 -7.03125 C 4.1875 -7.03125 4.613281 -6.9375 4.96875 -6.75 C 5.332031 -6.570312 5.660156 -6.265625 5.953125 -5.828125 L 6 -5.828125 C 5.96875 -6.359375 5.953125 -6.878906 5.953125 -7.390625 L 5.953125 -9.875 L 6.578125 -9.875 L 6.578125 0 L 6.15625 0 L 6 -1.046875 L 5.953125 -1.046875 C 5.429688 -0.265625 4.675781 0.125 3.6875 0.125 C 2.738281 0.125 2.007812 -0.171875 1.5 -0.765625 C 1 -1.359375 0.75 -2.222656 0.75 -3.359375 C 0.75 -4.546875 1 -5.453125 1.5 -6.078125 C 2 -6.710938 2.726562 -7.03125 3.6875 -7.03125 Z M 3.6875 -6.46875 C 2.925781 -6.46875 2.359375 -6.203125 1.984375 -5.671875 C 1.609375 -5.140625 1.421875 -4.367188 1.421875 -3.359375 C 1.421875 -1.410156 2.175781 -0.4375 3.6875 -0.4375 C 4.46875 -0.4375 5.039062 -0.660156 5.40625 -1.109375 C 5.769531 -1.566406 5.953125 -2.316406 5.953125 -3.359375 L 5.953125 -3.453125 C 5.953125 -4.523438 5.769531 -5.296875 5.40625 -5.765625 C 5.050781 -6.234375 4.476562 -6.46875 3.6875 -6.46875 Z M 3.6875 -6.46875 "/></g></g></g><g fill="#000000" fill-opacity="1"><g transform="translate(286.610627, 267.802365)"><g/></g></g><g fill="#000000" fill-opacity="1"><g transform="translate(289.986565, 267.802365)"><g><path d="M 1.3125 0 L 1.3125 -9.28125 L 1.96875 -9.28125 L 1.96875 -0.609375 L 6.390625 -0.609375 L 6.390625 0 Z M 1.3125 0 "/></g></g></g><g fill="#000000" fill-opacity="1"><g transform="translate(296.655952, 267.802365)"><g><path d="M 6.859375 -3.453125 C 6.859375 -2.328125 6.582031 -1.445312 6.03125 -0.8125 C 5.488281 -0.1875 4.738281 0.125 3.78125 0.125 C 3.175781 0.125 2.640625 -0.0195312 2.171875 -0.3125 C 1.710938 -0.601562 1.359375 -1.019531 1.109375 -1.5625 C 0.867188 -2.113281 0.75 -2.742188 0.75 -3.453125 C 0.75 -4.578125 1.019531 -5.453125 1.5625 -6.078125 C 2.113281 -6.710938 2.867188 -7.03125 3.828125 -7.03125 C 4.773438 -7.03125 5.515625 -6.710938 6.046875 -6.078125 C 6.585938 -5.441406 6.859375 -4.566406 6.859375 -3.453125 Z M 1.421875 -3.453125 C 1.421875 -2.503906 1.628906 -1.765625 2.046875 -1.234375 C 2.460938 -0.703125 3.050781 -0.4375 3.8125 -0.4375 C 4.570312 -0.4375 5.160156 -0.703125 5.578125 -1.234375 C 5.992188 -1.765625 6.203125 -2.503906 6.203125 -3.453125 C 6.203125 -4.410156 5.988281 -5.148438 5.5625 -5.671875 C 5.144531 -6.203125 4.554688 -6.46875 3.796875 -6.46875 C 3.035156 -6.46875 2.445312 -6.203125 2.03125 -5.671875 C 1.625 -5.148438 1.421875 -4.410156 1.421875 -3.453125 Z M 1.421875 -3.453125 "/></g></g></g><g fill="#000000" fill-opacity="1"><g transform="translate(304.270851, 267.802365)"><g><path d="M 6.53125 -6.90625 L 6.53125 -6.46875 L 5.109375 -6.375 C 5.492188 -5.894531 5.6875 -5.375 5.6875 -4.8125 C 5.6875 -4.144531 5.460938 -3.601562 5.015625 -3.1875 C 4.578125 -2.78125 3.984375 -2.578125 3.234375 -2.578125 C 2.921875 -2.578125 2.703125 -2.585938 2.578125 -2.609375 C 2.328125 -2.484375 2.132812 -2.332031 2 -2.15625 C 1.875 -1.976562 1.8125 -1.789062 1.8125 -1.59375 C 1.8125 -1.363281 1.894531 -1.195312 2.0625 -1.09375 C 2.226562 -1 2.507812 -0.953125 2.90625 -0.953125 L 4.109375 -0.953125 C 4.859375 -0.953125 5.429688 -0.800781 5.828125 -0.5 C 6.222656 -0.195312 6.421875 0.25 6.421875 0.84375 C 6.421875 1.570312 6.125 2.132812 5.53125 2.53125 C 4.945312 2.925781 4.109375 3.125 3.015625 3.125 C 2.148438 3.125 1.476562 2.957031 1 2.625 C 0.519531 2.289062 0.28125 1.820312 0.28125 1.21875 C 0.28125 0.75 0.425781 0.359375 0.71875 0.046875 C 1.019531 -0.265625 1.421875 -0.476562 1.921875 -0.59375 C 1.710938 -0.6875 1.546875 -0.8125 1.421875 -0.96875 C 1.296875 -1.132812 1.234375 -1.320312 1.234375 -1.53125 C 1.234375 -2 1.53125 -2.40625 2.125 -2.75 C 1.71875 -2.914062 1.398438 -3.175781 1.171875 -3.53125 C 0.953125 -3.882812 0.84375 -4.289062 0.84375 -4.75 C 0.84375 -5.4375 1.0625 -5.988281 1.5 -6.40625 C 1.9375 -6.820312 2.53125 -7.03125 3.28125 -7.03125 C 3.726562 -7.03125 4.078125 -6.988281 4.328125 -6.90625 Z M 0.953125 1.171875 C 0.953125 2.117188 1.65625 2.59375 3.0625 2.59375 C 4.875 2.59375 5.78125 2.015625 5.78125 0.859375 C 5.78125 0.441406 5.640625 0.140625 5.359375 -0.046875 C 5.078125 -0.234375 4.617188 -0.328125 3.984375 -0.328125 L 2.84375 -0.328125 C 1.582031 -0.328125 0.953125 0.171875 0.953125 1.171875 Z M 1.484375 -4.75 C 1.484375 -4.21875 1.644531 -3.800781 1.96875 -3.5 C 2.289062 -3.207031 2.722656 -3.0625 3.265625 -3.0625 C 3.835938 -3.0625 4.273438 -3.207031 4.578125 -3.5 C 4.890625 -3.789062 5.046875 -4.21875 5.046875 -4.78125 C 5.046875 -5.363281 4.882812 -5.800781 4.5625 -6.09375 C 4.25 -6.382812 3.8125 -6.53125 3.25 -6.53125 C 2.695312 -6.53125 2.265625 -6.375 1.953125 -6.0625 C 1.640625 -5.75 1.484375 -5.3125 1.484375 -4.75 Z M 1.484375 -4.75 "/></g></g></g><g fill="#000000" fill-opacity="1"><g transform="translate(311.067153, 267.802365)"><g><path d="M 1.78125 0 L 1.15625 0 L 1.15625 -6.90625 L 1.78125 -6.90625 Z M 1.0625 -8.8125 C 1.0625 -9.21875 1.195312 -9.421875 1.46875 -9.421875 C 1.59375 -9.421875 1.691406 -9.367188 1.765625 -9.265625 C 1.847656 -9.160156 1.890625 -9.007812 1.890625 -8.8125 C 1.890625 -8.625 1.847656 -8.472656 1.765625 -8.359375 C 1.691406 -8.253906 1.59375 -8.203125 1.46875 -8.203125 C 1.195312 -8.203125 1.0625 -8.40625 1.0625 -8.8125 Z M 1.0625 -8.8125 "/></g></g></g><g fill="#000000" fill-opacity="1"><g transform="translate(314.00524, 267.802365)"><g><path d="M 5.4375 -1.796875 C 5.4375 -1.179688 5.203125 -0.707031 4.734375 -0.375 C 4.265625 -0.0390625 3.597656 0.125 2.734375 0.125 C 1.804688 0.125 1.070312 -0.015625 0.53125 -0.296875 L 0.53125 -0.984375 C 1.226562 -0.628906 1.960938 -0.453125 2.734375 -0.453125 C 3.410156 -0.453125 3.925781 -0.566406 4.28125 -0.796875 C 4.632812 -1.023438 4.8125 -1.328125 4.8125 -1.703125 C 4.8125 -2.046875 4.671875 -2.335938 4.390625 -2.578125 C 4.109375 -2.816406 3.644531 -3.050781 3 -3.28125 C 2.3125 -3.53125 1.828125 -3.742188 1.546875 -3.921875 C 1.265625 -4.097656 1.050781 -4.300781 0.90625 -4.53125 C 0.769531 -4.757812 0.703125 -5.035156 0.703125 -5.359375 C 0.703125 -5.867188 0.914062 -6.273438 1.34375 -6.578125 C 1.78125 -6.878906 2.390625 -7.03125 3.171875 -7.03125 C 3.921875 -7.03125 4.628906 -6.890625 5.296875 -6.609375 L 5.0625 -6.046875 C 4.382812 -6.328125 3.753906 -6.46875 3.171875 -6.46875 C 2.609375 -6.46875 2.160156 -6.375 1.828125 -6.1875 C 1.503906 -6 1.34375 -5.738281 1.34375 -5.40625 C 1.34375 -5.050781 1.46875 -4.765625 1.71875 -4.546875 C 1.976562 -4.328125 2.476562 -4.085938 3.21875 -3.828125 C 3.84375 -3.597656 4.296875 -3.394531 4.578125 -3.21875 C 4.867188 -3.039062 5.082031 -2.835938 5.21875 -2.609375 C 5.363281 -2.378906 5.4375 -2.109375 5.4375 -1.796875 Z M 5.4375 -1.796875 "/></g></g></g><g fill="#000000" fill-opacity="1"><g transform="translate(320.059096, 267.802365)"><g><path d="M 2.984375 -0.4375 C 3.378906 -0.4375 3.722656 -0.46875 4.015625 -0.53125 L 4.015625 -0.03125 C 3.710938 0.0703125 3.363281 0.125 2.96875 0.125 C 2.351562 0.125 1.898438 -0.0351562 1.609375 -0.359375 C 1.328125 -0.679688 1.1875 -1.191406 1.1875 -1.890625 L 1.1875 -6.359375 L 0.15625 -6.359375 L 0.15625 -6.71875 L 1.1875 -7.015625 L 1.5 -8.5625 L 1.828125 -8.5625 L 1.828125 -6.90625 L 3.84375 -6.90625 L 3.84375 -6.359375 L 1.828125 -6.359375 L 1.828125 -1.984375 C 1.828125 -1.453125 1.914062 -1.0625 2.09375 -0.8125 C 2.28125 -0.5625 2.578125 -0.4375 2.984375 -0.4375 Z M 2.984375 -0.4375 "/></g></g></g><g fill="#000000" fill-opacity="1"><g transform="translate(324.412291, 267.802365)"><g><path d="M 1.78125 0 L 1.15625 0 L 1.15625 -6.90625 L 1.78125 -6.90625 Z M 1.0625 -8.8125 C 1.0625 -9.21875 1.195312 -9.421875 1.46875 -9.421875 C 1.59375 -9.421875 1.691406 -9.367188 1.765625 -9.265625 C 1.847656 -9.160156 1.890625 -9.007812 1.890625 -8.8125 C 1.890625 -8.625 1.847656 -8.472656 1.765625 -8.359375 C 1.691406 -8.253906 1.59375 -8.203125 1.46875 -8.203125 C 1.195312 -8.203125 1.0625 -8.40625 1.0625 -8.8125 Z M 1.0625 -8.8125 "/></g></g></g><g fill="#000000" fill-opacity="1"><g transform="translate(327.350378, 267.802365)"><g><path d="M 3.90625 0.125 C 2.925781 0.125 2.15625 -0.179688 1.59375 -0.796875 C 1.03125 -1.421875 0.75 -2.289062 0.75 -3.40625 C 0.75 -4.550781 1.039062 -5.441406 1.625 -6.078125 C 2.207031 -6.710938 3 -7.03125 4 -7.03125 C 4.601562 -7.03125 5.175781 -6.925781 5.71875 -6.71875 L 5.546875 -6.15625 C 4.953125 -6.363281 4.4375 -6.46875 4 -6.46875 C 3.144531 -6.46875 2.5 -6.203125 2.0625 -5.671875 C 1.632812 -5.148438 1.421875 -4.398438 1.421875 -3.421875 C 1.421875 -2.492188 1.632812 -1.765625 2.0625 -1.234375 C 2.5 -0.703125 3.109375 -0.4375 3.890625 -0.4375 C 4.523438 -0.4375 5.109375 -0.550781 5.640625 -0.78125 L 5.640625 -0.203125 C 5.203125 0.015625 4.625 0.125 3.90625 0.125 Z M 3.90625 0.125 "/></g></g></g><g fill="#000000" fill-opacity="1"><g transform="translate(333.524809, 267.802365)"><g><path d="M 5.4375 -1.796875 C 5.4375 -1.179688 5.203125 -0.707031 4.734375 -0.375 C 4.265625 -0.0390625 3.597656 0.125 2.734375 0.125 C 1.804688 0.125 1.070312 -0.015625 0.53125 -0.296875 L 0.53125 -0.984375 C 1.226562 -0.628906 1.960938 -0.453125 2.734375 -0.453125 C 3.410156 -0.453125 3.925781 -0.566406 4.28125 -0.796875 C 4.632812 -1.023438 4.8125 -1.328125 4.8125 -1.703125 C 4.8125 -2.046875 4.671875 -2.335938 4.390625 -2.578125 C 4.109375 -2.816406 3.644531 -3.050781 3 -3.28125 C 2.3125 -3.53125 1.828125 -3.742188 1.546875 -3.921875 C 1.265625 -4.097656 1.050781 -4.300781 0.90625 -4.53125 C 0.769531 -4.757812 0.703125 -5.035156 0.703125 -5.359375 C 0.703125 -5.867188 0.914062 -6.273438 1.34375 -6.578125 C 1.78125 -6.878906 2.390625 -7.03125 3.171875 -7.03125 C 3.921875 -7.03125 4.628906 -6.890625 5.296875 -6.609375 L 5.0625 -6.046875 C 4.382812 -6.328125 3.753906 -6.46875 3.171875 -6.46875 C 2.609375 -6.46875 2.160156 -6.375 1.828125 -6.1875 C 1.503906 -6 1.34375 -5.738281 1.34375 -5.40625 C 1.34375 -5.050781 1.46875 -4.765625 1.71875 -4.546875 C 1.976562 -4.328125 2.476562 -4.085938 3.21875 -3.828125 C 3.84375 -3.597656 4.296875 -3.394531 4.578125 -3.21875 C 4.867188 -3.039062 5.082031 -2.835938 5.21875 -2.609375 C 5.363281 -2.378906 5.4375 -2.109375 5.4375 -1.796875 Z M 5.4375 -1.796875 "/></g></g></g></svg>